<svg width="16" height="12" viewBox="0 0 16 12" fill="none" xmlns="http://www.w3.org/2000/svg">
<path d="M0.895833 6.86577H15.1042C15.3542 6.85235 15.566 6.7651 15.7396 6.60403C15.9132 6.44295 16 6.24161 16 6C16 5.75839 15.9132 5.55705 15.7396 5.39597C15.566 5.2349 15.3542 5.14765 15.1042 5.13423H0.895833C0.645833 5.14765 0.434028 5.2349 0.260417 5.39597C0.0868056 5.55705 0 5.75839 0 6C0 6.24161 0.0868056 6.44295 0.260417 6.60403C0.434028 6.7651 0.645833 6.85235 0.895833 6.86577ZM9.14583 10.5503C8.97917 10.7248 8.89583 10.9262 8.89583 11.1544C8.89583 11.3826 8.98611 11.5805 9.16667 11.7483C9.34722 11.9161 9.55208 12 9.78125 12C10.0104 12 10.2153 11.9195 10.3958 11.7584L15.7292 6.60403C15.9097 6.42953 16 6.22819 16 6C16 5.77181 15.9097 5.57047 15.7292 5.39597L10.3958 0.241611C10.2153 0.0805378 10.0104 9.53674e-07 9.78125 9.53674e-07C9.55208 9.53674e-07 9.34722 0.0838928 9.16667 0.251678C8.98611 0.419463 8.89583 0.61745 8.89583 0.845638C8.89583 1.07383 8.97917 1.27517 9.14583 1.44967L13.8542 6L9.14583 10.5503Z" fill="#3F08F4"/>
</svg>
