<svg width="12" height="9" viewBox="0 0 12 9" fill="none" xmlns="http://www.w3.org/2000/svg">
<path d="M0.629883 4.99512H10.6201C10.7959 4.98535 10.9448 4.92188 11.0669 4.80469C11.189 4.6875 11.25 4.54102 11.25 4.36523C11.25 4.18945 11.189 4.04297 11.0669 3.92578C10.9448 3.80859 10.7959 3.74512 10.6201 3.73535H0.629883C0.454102 3.74512 0.305176 3.80859 0.183105 3.92578C0.0610352 4.04297 0 4.18945 0 4.36523C0 4.54102 0.0610352 4.6875 0.183105 4.80469C0.305176 4.92188 0.454102 4.98535 0.629883 4.99512ZM6.43066 7.67578C6.31348 7.80273 6.25488 7.94922 6.25488 8.11523C6.25488 8.28125 6.31836 8.42529 6.44531 8.54736C6.57227 8.66943 6.71631 8.73047 6.87744 8.73047C7.03857 8.73047 7.18262 8.67188 7.30957 8.55469L11.0596 4.80469C11.1865 4.67773 11.25 4.53125 11.25 4.36523C11.25 4.19922 11.1865 4.05273 11.0596 3.92578L7.30957 0.175781C7.18262 0.0585938 7.03857 0 6.87744 0C6.71631 0 6.57227 0.0610352 6.44531 0.183105C6.31836 0.305176 6.25488 0.449219 6.25488 0.615234C6.25488 0.78125 6.31348 0.927734 6.43066 1.05469L9.74121 4.36523L6.43066 7.67578Z" fill="#23272F"/>
</svg>
